HIERARCHY
ROOT Hips
{
  OFFSET 0.000 73.550 0.000
  CHANNELS 6 Xposition Yposition Zposition Zrotation Xrotation Yrotation
  JOINT LeftUpLeg
  {
    OFFSET 5.873 1.308 2.544
    CHANNELS 6 Xposition Yposition Zposition Zrotation Xrotation Yrotation
    JOINT LeftLeg
    {
      OFFSET 0.000 -38.476 0.000
      CHANNELS 6 Xposition Yposition Zposition Zrotation Xrotation Yrotation
      JOINT LeftFoot
      {
        OFFSET 0.000 -36.382 0.000
        CHANNELS 6 Xposition Yposition Zposition Zrotation Xrotation Yrotation
        End Site
        {
          OFFSET 0.000 0.000 11.032
        }
      }
    }
  }
  JOINT RightUpLeg
  {
    OFFSET -5.873 1.308 2.544
    CHANNELS 6 Xposition Yposition Zposition Zrotation Xrotation Yrotation
    JOINT RightLeg
    {
      OFFSET 0.000 -38.476 0.000
      CHANNELS 6 Xposition Yposition Zposition Zrotation Xrotation Yrotation
      JOINT RightFoot
      {
        OFFSET 0.000 -36.382 0.000
        CHANNELS 6 Xposition Yposition Zposition Zrotation Xrotation Yrotation
        End Site
        {
          OFFSET 0.000 0.000 11.032
        }
      }
    }
  }
  JOINT Spine
  {
    OFFSET 0.000 16.301 0.000
    CHANNELS 6 Xposition Yposition Zposition Zrotation Xrotation Yrotation
    JOINT Spine1
    {
      OFFSET 0.000 12.286 0.000
      CHANNELS 6 Xposition Yposition Zposition Zrotation Xrotation Yrotation
      JOINT LeftShoulder
      {
        OFFSET 1.800 -0.600 0.200
        CHANNELS 6 Xposition Yposition Zposition Zrotation Xrotation Yrotation
        JOINT LeftArm
        {
          OFFSET 14.712 0.000 0.000
          CHANNELS 6 Xposition Yposition Zposition Zrotation Xrotation Yrotation
          JOINT LeftForeArm
          {
            OFFSET 24.084 0.000 0.000
            CHANNELS 6 Xposition Yposition Zposition Zrotation Xrotation Yrotation
            JOINT LeftHand
            {
              OFFSET 22.377 0.000 0.000
              CHANNELS 6 Xposition Yposition Zposition Zrotation Xrotation Yrotation
              JOINT LeftHandThumb1
              {
                OFFSET 4.877 -1.044 3.608
                CHANNELS 6 Xposition Yposition Zposition Zrotation Xrotation Yrotation
                JOINT LeftHandThumb2
                {
                  OFFSET 2.665 0.000 0.000
                  CHANNELS 6 Xposition Yposition Zposition Zrotation Xrotation Yrotation
                  JOINT LeftHandThumb3
                  {
                    OFFSET 2.543 0.000 -0.000
                    CHANNELS 6 Xposition Yposition Zposition Zrotation Xrotation Yrotation
                    End Site
                    {
                      OFFSET 2.667 0.000 0.000
                    }
                  }
                }
              }
              JOINT LeftHandIndex1
              {
                OFFSET 9.232 -0.301 2.144
                CHANNELS 6 Xposition Yposition Zposition Zrotation Xrotation Yrotation
                JOINT LeftHandIndex2
                {
                  OFFSET 4.225 0.000 -0.000
                  CHANNELS 6 Xposition Yposition Zposition Zrotation Xrotation Yrotation
                  JOINT LeftHandIndex3
                  {
                    OFFSET 2.654 -0.000 0.000
                    CHANNELS 6 Xposition Yposition Zposition Zrotation Xrotation Yrotation
                    End Site
                    {
                      OFFSET 1.958 0.000 0.000
                    }
                  }
                }
              }
              JOINT LeftHandMiddle1
              {
                OFFSET 8.920 -0.000 0.000
                CHANNELS 6 Xposition Yposition Zposition Zrotation Xrotation Yrotation
                JOINT LeftHandMiddle2
                {
                  OFFSET 4.863 0.000 -0.000
                  CHANNELS 6 Xposition Yposition Zposition Zrotation Xrotation Yrotation
                  JOINT LeftHandMiddle3
                  {
                    OFFSET 2.765 0.000 0.000
                    CHANNELS 6 Xposition Yposition Zposition Zrotation Xrotation Yrotation
                    End Site
                    {
                      OFFSET 2.006 0.000 0.000
                    }
                  }
                }
              }
              JOINT LeftHandRing1
              {
                OFFSET 8.689 -0.126 -2.087
                CHANNELS 6 Xposition Yposition Zposition Zrotation Xrotation Yrotation
                JOINT LeftHandRing2
                {
                  OFFSET 4.538 0.000 0.000
                  CHANNELS 6 Xposition Yposition Zposition Zrotation Xrotation Yrotation
                  JOINT LeftHandRing3
                  {
                    OFFSET 2.305 0.000 0.000
                    CHANNELS 6 Xposition Yposition Zposition Zrotation Xrotation Yrotation
                    End Site
                    {
                      OFFSET 1.923 0.000 0.000
                    }
                  }
                }
              }
              JOINT LeftHandPinky1
              {
                OFFSET 8.391 -0.817 -3.758
                CHANNELS 6 Xposition Yposition Zposition Zrotation Xrotation Yrotation
                JOINT LeftHandPinky2
                {
                  OFFSET 3.044 0.000 0.000
                  CHANNELS 6 Xposition Yposition Zposition Zrotation Xrotation Yrotation
                  JOINT LeftHandPinky3
                  {
                    OFFSET 1.975 0.000 0.000
                    CHANNELS 6 Xposition Yposition Zposition Zrotation Xrotation Yrotation
                    End Site
                    {
                      OFFSET 1.667 0.000 0.000
                    }
                  }
                }
              }
            }
          }
        }
      }
      JOINT RightShoulder
      {
        OFFSET -1.800 -0.600 0.200
        CHANNELS 6 Xposition Yposition Zposition Zrotation Xrotation Yrotation
        JOINT RightArm
        {
          OFFSET -14.712 0.000 0.000
          CHANNELS 6 Xposition Yposition Zposition Zrotation Xrotation Yrotation
          JOINT RightForeArm
          {
            OFFSET -24.084 0.000 0.000
            CHANNELS 6 Xposition Yposition Zposition Zrotation Xrotation Yrotation
            JOINT RightHand
            {
              OFFSET -22.377 0.000 0.000
              CHANNELS 6 Xposition Yposition Zposition Zrotation Xrotation Yrotation
              JOINT RightHandThumb1
              {
                OFFSET -4.877 -1.044 3.608
                CHANNELS 6 Xposition Yposition Zposition Zrotation Xrotation Yrotation
                JOINT RightHandThumb2
                {
                  OFFSET -2.665 -0.000 0.000
                  CHANNELS 6 Xposition Yposition Zposition Zrotation Xrotation Yrotation
                  JOINT RightHandThumb3
                  {
                    OFFSET -2.543 0.000 -0.000
                    CHANNELS 6 Xposition Yposition Zposition Zrotation Xrotation Yrotation
                    End Site
                    {
                      OFFSET -2.667 -0.000 0.000
                    }
                  }
                }
              }
              JOINT RightHandIndex1
              {
                OFFSET -9.232 -0.301 2.144
                CHANNELS 6 Xposition Yposition Zposition Zrotation Xrotation Yrotation
                JOINT RightHandIndex2
                {
                  OFFSET -4.225 0.000 0.000
                  CHANNELS 6 Xposition Yposition Zposition Zrotation Xrotation Yrotation
                  JOINT RightHandIndex3
                  {
                    OFFSET -2.654 0.000 0.000
                    CHANNELS 6 Xposition Yposition Zposition Zrotation Xrotation Yrotation
                    End Site
                    {
                      OFFSET -1.958 -0.000 -0.000
                    }
                  }
                }
              }
              JOINT RightHandMiddle1
              {
                OFFSET -8.920 0.000 0.000
                CHANNELS 6 Xposition Yposition Zposition Zrotation Xrotation Yrotation
                JOINT RightHandMiddle2
                {
                  OFFSET -4.863 0.000 0.000
                  CHANNELS 6 Xposition Yposition Zposition Zrotation Xrotation Yrotation
                  JOINT RightHandMiddle3
                  {
                    OFFSET -2.765 0.000 0.000
                    CHANNELS 6 Xposition Yposition Zposition Zrotation Xrotation Yrotation
                    End Site
                    {
                      OFFSET -2.006 -0.000 0.000
                    }
                  }
                }
              }
              JOINT RightHandRing1
              {
                OFFSET -8.689 -0.126 -2.087
                CHANNELS 6 Xposition Yposition Zposition Zrotation Xrotation Yrotation
                JOINT RightHandRing2
                {
                  OFFSET -4.538 0.000 -0.000
                  CHANNELS 6 Xposition Yposition Zposition Zrotation Xrotation Yrotation
                  JOINT RightHandRing3
                  {
                    OFFSET -2.305 0.000 0.000
                    CHANNELS 6 Xposition Yposition Zposition Zrotation Xrotation Yrotation
                    End Site
                    {
                      OFFSET -1.923 0.000 0.000
                    }
                  }
                }
              }
              JOINT RightHandPinky1
              {
                OFFSET -8.391 -0.817 -3.758
                CHANNELS 6 Xposition Yposition Zposition Zrotation Xrotation Yrotation
                JOINT RightHandPinky2
                {
                  OFFSET -3.044 0.000 0.000
                  CHANNELS 6 Xposition Yposition Zposition Zrotation Xrotation Yrotation
                  JOINT RightHandPinky3
                  {
                    OFFSET -1.975 -0.000 0.000
                    CHANNELS 6 Xposition Yposition Zposition Zrotation Xrotation Yrotation
                    End Site
                    {
                      OFFSET -1.667 0.000 -0.000
                    }
                  }
                }
              }
            }
          }
        }
      }
      JOINT Neck
      {
        OFFSET 0.000 0.800 0.000
        CHANNELS 6 Xposition Yposition Zposition Zrotation Xrotation Yrotation
        JOINT Head
        {
          OFFSET 0.000 6.605 0.000
          CHANNELS 6 Xposition Yposition Zposition Zrotation Xrotation Yrotation
          End Site
          {
            OFFSET 0.000 13.582 0.000
          }
        }
      }
    }
  }
}
MOTION
Frames:	4
Frame Time:	0.033333
3.19744 83.49775 -203.05087 -1.35395 -1.47610 -39.76297 5.38901 1.85084 2.68236 3.28292 0.39004 -22.35665 -0.00390 -38.97441 0.00065 -1.08098 -2.32269 6.50987 -0.00995 -37.36417 0.00920 -2.37567 32.35699 4.43394 -1.07708 -1.11159 2.67938 -21.37527 16.07198 -45.65282 -0.00538 -41.23871 -0.00469 22.33798 17.89470 -5.78785 -0.00445 -42.19485 -0.00045 0.22767 -8.93900 1.01372 0.00053 31.57173 -0.00990 -1.25039 1.47186 -12.48599 -0.00110 23.01437 -0.00244 -1.86915 1.39903 -11.78184 1.50437 -0.61152 -0.03363 -22.20170 -0.44071 1.09496 14.55319 0.00771 -0.00528 -47.97412 8.12790 -14.32673 28.54624 0.00482 -0.00409 -22.31550 15.60961 -4.72357 24.03049 0.01384 -0.02518 -20.76193 30.38450 13.25156 4.87700 -1.04401 3.60801 -35.30361 -3.64334 -8.25789 2.66499 0.00000 0.00000 0.00000 -0.00000 6.87820 2.54299 0.00001 -0.00001 -0.00001 0.00000 43.09618 9.23200 -0.30102 2.14400 -57.46157 -0.00000 -0.00000 4.22499 0.00000 -0.00001 -65.58337 -0.00000 0.00000 2.65399 -0.00001 0.00000 -54.95991 1.53796 -1.07824 8.92000 -0.00001 0.00001 -57.46157 -0.00000 -0.00000 4.86300 0.00001 -0.00001 -65.58337 -0.00000 0.00000 2.76500 0.00001 0.00000 -54.95991 1.53796 -1.07824 8.68901 -0.12602 -2.08700 -57.46157 -0.00000 -0.00000 4.53799 0.00000 0.00000 -65.58337 -0.00000 0.00000 2.30501 0.00001 0.00000 -54.95991 1.53796 -1.07824 8.39101 -0.81702 -3.75800 -57.46157 -0.00000 -0.00000 3.04399 0.00001 0.00001 -65.58337 -0.00000 0.00000 1.97500 0.00001 0.00000 -54.95991 1.53796 -1.07824 -1.65608 -0.80642 -0.02583 25.72867 -0.46615 -0.96443 -16.52784 -0.00366 -0.00190 53.31927 8.30261 3.27460 -30.59441 -0.00260 0.00657 17.67606 11.34831 8.87764 -23.04896 -0.01317 0.00441 1.07013 -1.17611 -5.35803 -4.87700 -1.04399 3.60800 24.66570 4.20855 9.07947 -2.66502 -0.00001 0.00000 -0.00000 -0.00000 -10.00000 -2.54298 0.00004 -0.00002 -0.00000 0.00000 -15.00000 -9.23200 -0.30099 2.14400 20.00000 -0.00001 0.00000 -4.22499 0.00000 0.00000 25.00000 -0.00001 0.00000 -2.65400 0.00000 0.00000 29.90550 2.49762 4.33288 -8.92000 0.00000 0.00001 20.00000 -0.00001 0.00000 -4.86300 0.00001 0.00000 25.00000 -0.00001 0.00000 -2.76499 0.00000 0.00000 29.90550 2.49762 4.33288 -8.68900 -0.12599 -2.08699 20.00000 -0.00001 0.00000 -4.53800 0.00000 -0.00001 25.00000 -0.00001 0.00000 -2.30501 0.00000 0.00001 29.90550 2.49762 4.33288 -8.39100 -0.81700 -3.75800 20.00000 -0.00001 0.00000 -3.04400 0.00001 0.00000 25.00000 -0.00001 0.00000 -1.97501 -0.00001 0.00001 29.90550 2.49762 4.33288 0.00711 0.75154 0.00114 0.00005 -0.00002 0.00710 0.01735 6.76681 -0.01121 10.86999 -8.09356 36.79985 
3.24265 83.69256 -203.05013 -1.32200 -1.42322 -40.34269 5.43103 1.90506 2.66345 3.20331 0.26411 -21.60407 -0.00390 -39.18971 0.00065 -1.10217 -2.10250 6.46554 -0.00995 -37.43353 0.00920 -2.35518 32.06703 4.43112 -1.06686 -1.16054 2.66020 -21.54001 15.69415 -44.88297 -0.00538 -41.33019 -0.00469 22.35762 17.89744 -4.83524 -0.00445 -42.19441 -0.00045 0.09203 -8.96376 0.25493 0.00053 31.44180 -0.00990 -1.25463 1.42661 -12.20946 -0.00110 22.97703 -0.00244 -1.87610 1.40215 -11.48418 1.50437 -0.61152 -0.03363 -22.26600 -0.42509 1.05273 14.55319 0.00771 -0.00528 -47.79491 8.11114 -14.21986 28.53811 0.00482 -0.00409 -22.35003 15.89135 -4.83825 24.04609 0.01384 -0.02518 -21.12830 30.21495 12.99528 4.87700 -1.04401 3.60801 -37.53181 -5.33607 -8.07399 2.66499 0.00000 0.00000 0.00000 -0.00000 6.21455 2.54299 0.00001 -0.00001 -0.00001 0.00000 49.06902 9.23200 -0.30102 2.14400 -65.42535 -0.00000 -0.00000 4.22499 0.00000 -0.00001 -74.21080 -0.00000 0.00000 2.65399 -0.00001 0.00000 -60.27811 1.05311 -0.60422 8.92000 -0.00001 0.00001 -65.42535 -0.00000 -0.00000 4.86300 0.00001 -0.00001 -74.21080 -0.00000 0.00000 2.76500 0.00001 0.00000 -60.27811 1.05311 -0.60422 8.68901 -0.12602 -2.08700 -65.42535 -0.00000 -0.00000 4.53799 0.00000 0.00000 -74.21080 -0.00000 0.00000 2.30501 0.00001 0.00000 -60.27811 1.05311 -0.60422 8.39101 -0.81702 -3.75800 -65.42535 -0.00000 -0.00000 3.04399 0.00001 0.00001 -74.21080 -0.00000 0.00000 1.97500 0.00001 0.00000 -60.27811 1.05311 -0.60422 -1.65608 -0.80642 -0.02583 25.76345 -0.44900 -0.92767 -16.52784 -0.00366 -0.00190 53.28992 8.35369 3.30688 -30.59441 -0.00260 0.00657 17.56330 11.34027 8.84862 -22.98320 -0.01317 0.00441 1.71680 -0.01547 -3.04047 -4.87700 -1.04399 3.60800 24.66570 4.20855 9.07947 -2.66502 -0.00001 0.00000 -0.00000 -0.00000 -10.00000 -2.54298 0.00004 -0.00002 -0.00000 0.00000 -15.00000 -9.23200 -0.30099 2.14400 20.00000 -0.00001 0.00000 -4.22499 0.00000 0.00000 25.00000 -0.00001 0.00000 -2.65400 0.00000 0.00000 29.90550 2.49762 4.33288 -8.92000 0.00000 0.00001 20.00000 -0.00001 0.00000 -4.86300 0.00001 0.00000 25.00000 -0.00001 0.00000 -2.76499 0.00000 0.00000 29.90550 2.49762 4.33288 -8.68900 -0.12599 -2.08699 20.00000 -0.00001 0.00000 -4.53800 0.00000 -0.00001 25.00000 -0.00001 0.00000 -2.30501 0.00000 0.00001 29.90550 2.49762 4.33288 -8.39100 -0.81700 -3.75800 20.00000 -0.00001 0.00000 -3.04400 0.00001 0.00000 25.00000 -0.00001 0.00000 -1.97501 -0.00001 0.00001 29.90550 2.49762 4.33288 0.00711 0.75154 0.00114 0.00005 -0.00002 0.00710 0.01735 6.76210 -0.00796 10.91665 -7.96750 37.73225 
3.25792 83.91328 -203.09344 -1.30139 -1.30474 -41.06719 5.47171 1.98908 2.63843 3.23511 0.02295 -20.79353 -0.00390 -39.46284 0.00065 -1.21110 -1.75990 6.47434 -0.00995 -37.48280 0.00920 -2.35907 31.79077 4.47276 -1.04490 -1.22767 2.63517 -21.62870 15.11309 -43.94511 -0.00538 -41.26919 -0.00469 22.28960 17.91847 -4.10154 -0.00795 -42.22305 0.00458 -0.11322 -8.44274 -1.03456 0.00053 31.30412 -0.00990 -1.23640 1.37864 -11.85681 -0.00110 22.92980 -0.00244 -1.88079 1.42920 -11.09142 1.50437 -0.61152 -0.03026 -22.29646 -0.39768 0.98655 14.55748 0.00771 -0.00528 -47.61100 8.09206 -14.14587 28.52989 0.00482 -0.00409 -22.38259 16.15005 -4.97310 24.05619 0.01384 -0.02518 -21.17857 29.84492 12.38356 4.87700 -1.04401 3.60801 -39.10598 -6.54305 -7.94165 2.66499 0.00000 0.00000 0.00000 -0.00000 5.74340 2.54299 0.00001 -0.00001 -0.00001 0.00000 53.30942 9.23200 -0.30102 2.14400 -71.07922 -0.00000 -0.00000 4.22499 0.00000 -0.00001 -80.33582 -0.00000 0.00000 2.65399 -0.00001 0.00000 -64.05093 0.66832 -0.32556 8.92000 -0.00001 0.00001 -71.07922 -0.00000 -0.00000 4.86300 0.00001 -0.00001 -80.33582 -0.00000 0.00000 2.76500 0.00001 0.00000 -64.05093 0.66832 -0.32556 8.68901 -0.12602 -2.08700 -71.07922 -0.00000 -0.00000 4.53799 0.00000 0.00000 -80.33582 -0.00000 0.00000 2.30501 0.00001 0.00000 -64.05093 0.66832 -0.32556 8.39101 -0.81702 -3.75800 -71.07922 -0.00000 -0.00000 3.04399 0.00001 0.00001 -80.33582 -0.00000 0.00000 1.97500 0.00001 0.00000 -64.05093 0.66832 -0.32556 -1.65608 -0.80642 -0.02583 25.86336 -0.42253 -0.86982 -16.52784 -0.00366 -0.00190 53.23368 8.34674 3.38307 -30.59441 -0.00260 0.00657 17.45050 11.37438 8.88585 -22.90179 -0.00914 0.00306 2.15155 1.21586 -0.63668 -4.87700 -1.04399 3.60800 24.66570 4.20855 9.07947 -2.66502 -0.00001 0.00000 -0.00000 -0.00000 -10.00000 -2.54298 0.00004 -0.00002 -0.00000 0.00000 -15.00000 -9.23200 -0.30099 2.14400 20.00000 -0.00001 0.00000 -4.22499 0.00000 0.00000 25.00000 -0.00001 0.00000 -2.65400 0.00000 0.00000 29.90550 2.49762 4.33288 -8.92000 0.00000 0.00001 20.00000 -0.00001 0.00000 -4.86300 0.00001 0.00000 25.00000 -0.00001 0.00000 -2.76499 0.00000 0.00000 29.90550 2.49762 4.33288 -8.68900 -0.12599 -2.08699 20.00000 -0.00001 0.00000 -4.53800 0.00000 -0.00001 25.00000 -0.00001 0.00000 -2.30501 0.00000 0.00001 29.90550 2.49762 4.33288 -8.39100 -0.81700 -3.75800 20.00000 -0.00001 0.00000 -3.04400 0.00001 0.00000 25.00000 -0.00001 0.00000 -1.97501 -0.00001 0.00001 29.90550 2.49762 4.33288 0.00711 0.75154 0.00114 0.00005 -0.00002 0.00710 0.01735 6.75390 -0.00179 13.38065 -1.18884 37.13689 
3.25536 84.17165 -203.15350 -1.26505 -1.17595 -41.89811 5.53047 2.04366 2.60558 3.26771 -0.26588 -20.00628 -0.00390 -39.77480 -0.00130 -1.33122 -1.34739 6.57623 -0.00995 -37.48312 0.00920 -2.40524 31.56732 4.58880 -1.03300 -1.27157 2.60129 -21.99685 14.51739 -42.99429 -0.00865 -40.32818 -0.00469 22.41078 18.12561 -3.62031 0.16485 -41.26046 -0.13903 0.34573 2.26662 -3.67445 0.00053 31.15809 -0.00990 -1.23160 1.32916 -11.43743 -0.00110 22.86371 -0.00244 -1.88153 1.44946 -10.67330 1.50437 -0.61152 -0.02596 -22.32884 -0.35974 0.89493 14.57585 0.00771 -0.00528 -47.43026 8.05377 -14.02797 28.50946 0.00482 -0.00409 -22.41573 16.37462 -5.15451 24.07811 0.01384 -0.02251 -21.42331 29.57706 11.49457 4.87700 -1.04401 3.60801 -40.05714 -7.27720 -7.86042 2.66499 0.00000 0.00000 0.00000 -0.00000 5.45774 2.54299 0.00001 -0.00001 -0.00001 0.00000 55.88040 9.23200 -0.30102 2.14400 -74.50719 -0.00000 -0.00000 4.22499 0.00000 -0.00001 -84.04947 -0.00000 0.00000 2.65399 -0.00001 0.00000 -66.33746 0.41918 -0.18385 8.92000 -0.00001 0.00001 -74.50719 -0.00000 -0.00000 4.86300 0.00001 -0.00001 -84.04947 -0.00000 0.00000 2.76500 0.00001 0.00000 -66.33746 0.41918 -0.18385 8.68901 -0.12602 -2.08700 -74.50719 -0.00000 -0.00000 4.53799 0.00000 0.00000 -84.04947 -0.00000 0.00000 2.30501 0.00001 0.00000 -66.33746 0.41918 -0.18385 8.39101 -0.81702 -3.75800 -74.50719 -0.00000 -0.00000 3.04399 0.00001 0.00001 -84.04947 -0.00000 0.00000 1.97500 0.00001 0.00000 -66.33746 0.41918 -0.18385 -1.65608 -0.80642 -0.02583 25.98616 -0.38563 -0.79065 -16.52784 -0.00366 0.00105 53.12624 8.83945 3.47234 -30.59441 -0.00260 0.00657 18.01641 11.16136 9.63379 -23.74132 -0.04005 0.03510 -7.90756 -14.08815 -2.78856 -4.87700 -1.04399 3.60800 24.66570 4.20855 9.07947 -2.66502 -0.00001 0.00000 -0.00000 -0.00000 -10.00000 -2.54298 0.00004 -0.00002 -0.00000 0.00000 -15.00000 -9.23200 -0.30099 2.14400 20.00000 -0.00001 0.00000 -4.22499 0.00000 0.00000 25.00000 -0.00001 0.00000 -2.65400 0.00000 0.00000 29.90550 2.49762 4.33288 -8.92000 0.00000 0.00001 20.00000 -0.00001 0.00000 -4.86300 0.00001 0.00000 25.00000 -0.00001 0.00000 -2.76499 0.00000 0.00000 29.90550 2.49762 4.33288 -8.68900 -0.12599 -2.08699 20.00000 -0.00001 0.00000 -4.53800 0.00000 -0.00001 25.00000 -0.00001 0.00000 -2.30501 0.00000 0.00001 29.90550 2.49762 4.33288 -8.39100 -0.81700 -3.75800 20.00000 -0.00001 0.00000 -3.04400 0.00001 0.00000 25.00000 -0.00001 0.00000 -1.97501 -0.00001 0.00001 29.90550 2.49762 4.33288 0.00711 0.75154 0.00114 0.00005 -0.00002 0.00710 0.01735 6.73984 0.00470 17.18803 8.22872 33.75071 
